# xmcd
#
# Track frame offsets:
#	150
#	12215
#	26302
#	37523
#	50566
#	68229
#	89838
#	104085
#	118818
#	130568
#	142272
#	156620
#
# Disc length: 2258 seconds
#
# Revision: 1
# Processed by: cddbd v1.5.2PL0 Copyright (c) Steve Scherf et al.
# Submitted via: audiograbber 1.83.01
#
DISCID=a808d00c
DTITLE=Dixie Aces - Just Live
DYEAR=2007
DGENRE=Country
TTITLE0=Rock Your Baby
TTITLE1=One Sweet Letter
TTITLE2=Have You Ever Seen The Rain
TTITLE3=Johnny Guitar
TTITLE4=Masquerade Of A Fool
TTITLE5=Walk Of Live
TTITLE6=The Right Places
TTITLE7=Since I Met You Baby
TTITLE8=I Walk The Line
TTITLE9=Rock Around The Clock
TTITLE10=Rose Garden
TTITLE11=La Compaesa
EXTD=
EXTT0=
EXTT1=
EXTT2=
EXTT3=
EXTT4=
EXTT5=
EXTT6=
EXTT7=
EXTT8=
EXTT9=
EXTT10=
EXTT11=
PLAYORDER=
